<svg xmlns="http://www.w3.org/2000/svg" xmlns:svg="http://www.w3.org/2000/svg" id="svg8" width="1540" height="427" version="1.1" viewBox="0 0 407.458 112.977"><metadata id="metadata5"/><g id="layer1" transform="translate(0,-184.02291)"><g id="g5158"><path id="path5071" fill="#6c6c6c" fill-opacity="1" fill-rule="evenodd" stroke="none" stroke-width=".409" d="M 1306.2734 427 L 1423.248 427 L 1540 265.33398 L 1540 103.35547 L 1306.2734 427 z" clip-rule="nonzero" color="#000" color-interpolation="sRGB" color-interpolation-filters="linearRGB" color-rendering="auto" display="inline" enable-background="accumulate" image-rendering="auto" opacity="1" overflow="visible" shape-rendering="auto" text-rendering="auto" transform="matrix(0.26458333,0,0,0.26458333,0,184.02291)" visibility="visible" style="isolation:auto;mix-blend-mode:normal;solid-color:#000;solid-opacity:1"/><path id="path5067" fill="#6c6c6c" fill-opacity="1" fill-rule="evenodd" stroke="none" stroke-width=".409" d="M 1072.3535 427 L 1189.3281 427 L 1497.6953 0 L 1380.7227 0 L 1072.3535 427 z" clip-rule="nonzero" color="#000" color-interpolation="sRGB" color-interpolation-filters="linearRGB" color-rendering="auto" display="inline" enable-background="accumulate" image-rendering="auto" opacity="1" overflow="visible" shape-rendering="auto" text-rendering="auto" transform="matrix(0.26458333,0,0,0.26458333,0,184.02291)" visibility="visible" style="isolation:auto;mix-blend-mode:normal;solid-color:#000;solid-opacity:1"/><path id="path5063" fill="#6c6c6c" fill-opacity="1" fill-rule="evenodd" stroke="none" stroke-width=".409" d="M 838.43359 427 L 955.40625 427 L 1263.7754 0 L 1146.8008 0 L 838.43359 427 z" clip-rule="nonzero" color="#000" color-interpolation="sRGB" color-interpolation-filters="linearRGB" color-rendering="auto" display="inline" enable-background="accumulate" image-rendering="auto" opacity="1" overflow="visible" shape-rendering="auto" text-rendering="auto" transform="matrix(0.26458333,0,0,0.26458333,0,184.02291)" visibility="visible" style="isolation:auto;mix-blend-mode:normal;solid-color:#000;solid-opacity:1"/><path id="path5059" fill="#6c6c6c" fill-opacity="1" fill-rule="evenodd" stroke="none" stroke-width=".409" d="M 604.51367 427 L 721.49023 427 L 1029.8574 0 L 912.88086 0 L 604.51367 427 z" clip-rule="nonzero" color="#000" color-interpolation="sRGB" color-interpolation-filters="linearRGB" color-rendering="auto" display="inline" enable-background="accumulate" image-rendering="auto" opacity="1" overflow="visible" shape-rendering="auto" text-rendering="auto" transform="matrix(0.26458333,0,0,0.26458333,0,184.02291)" visibility="visible" style="isolation:auto;mix-blend-mode:normal;solid-color:#000;solid-opacity:1"/><path id="path5055" fill="#6c6c6c" fill-opacity="1" fill-rule="evenodd" stroke="none" stroke-width=".409" d="M 370.59375 427 L 487.56836 427 L 795.93555 0 L 678.96094 0 L 370.59375 427 z" clip-rule="nonzero" color="#000" color-interpolation="sRGB" color-interpolation-filters="linearRGB" color-rendering="auto" display="inline" enable-background="accumulate" image-rendering="auto" opacity="1" overflow="visible" shape-rendering="auto" text-rendering="auto" transform="matrix(0.26458333,0,0,0.26458333,0,184.02291)" visibility="visible" style="isolation:auto;mix-blend-mode:normal;solid-color:#000;solid-opacity:1"/><path id="path5051" fill="#6c6c6c" fill-opacity="1" fill-rule="evenodd" stroke="none" stroke-width=".409" d="M 136.67383 427 L 253.64844 427 L 562.01758 0 L 445.04297 0 L 136.67383 427 z" clip-rule="nonzero" color="#000" color-interpolation="sRGB" color-interpolation-filters="linearRGB" color-rendering="auto" display="inline" enable-background="accumulate" image-rendering="auto" opacity="1" overflow="visible" shape-rendering="auto" text-rendering="auto" transform="matrix(0.26458333,0,0,0.26458333,0,184.02291)" visibility="visible" style="isolation:auto;mix-blend-mode:normal;solid-color:#000;solid-opacity:1"/><path id="path5047" fill="#6c6c6c" fill-opacity="1" fill-rule="evenodd" stroke="none" stroke-width=".409" d="M 0 292.3418 L 0 427 L 19.726562 427 L 328.0957 0 L 211.12109 0 L 0 292.3418 z" clip-rule="nonzero" color="#000" color-interpolation="sRGB" color-interpolation-filters="linearRGB" color-rendering="auto" display="inline" enable-background="accumulate" image-rendering="auto" opacity="1" overflow="visible" shape-rendering="auto" text-rendering="auto" transform="matrix(0.26458333,0,0,0.26458333,0,184.02291)" visibility="visible" style="isolation:auto;mix-blend-mode:normal;solid-color:#000;solid-opacity:1"/><path id="path5045" fill="#6c6c6c" fill-opacity="1" fill-rule="evenodd" stroke="none" stroke-width=".409" d="M 94.175781 0 L 0 0 L 0 130.40625 L 94.175781 0 z" clip-rule="nonzero" color="#000" color-interpolation="sRGB" color-interpolation-filters="linearRGB" color-rendering="auto" display="inline" enable-background="accumulate" image-rendering="auto" opacity="1" overflow="visible" shape-rendering="auto" text-rendering="auto" transform="matrix(0.26458333,0,0,0.26458333,0,184.02291)" visibility="visible" style="isolation:auto;mix-blend-mode:normal;solid-color:#000;solid-opacity:1"/><path id="path5028" fill="#999" fill-opacity="1" fill-rule="evenodd" stroke="none" stroke-width=".409" d="M 1423.2266 427 L 1540 427 L 1540 265.30273 L 1423.2266 427 z" clip-rule="nonzero" color="#000" color-interpolation="sRGB" color-interpolation-filters="linearRGB" color-rendering="auto" display="inline" enable-background="accumulate" image-rendering="auto" opacity="1" overflow="visible" shape-rendering="auto" text-rendering="auto" transform="matrix(0.26458333,0,0,0.26458333,0,184.02291)" visibility="visible" style="isolation:auto;mix-blend-mode:normal;solid-color:#000;solid-opacity:1"/><path id="path5024" fill="#999" fill-opacity="1" fill-rule="evenodd" stroke="none" stroke-width=".409" d="M 1189.3066 427 L 1306.2812 427 L 1540 103.36719 L 1540 0 L 1497.6758 0 L 1189.3066 427 z" clip-rule="nonzero" color="#000" color-interpolation="sRGB" color-interpolation-filters="linearRGB" color-rendering="auto" display="inline" enable-background="accumulate" image-rendering="auto" opacity="1" overflow="visible" shape-rendering="auto" text-rendering="auto" transform="matrix(0.26458333,0,0,0.26458333,0,184.02291)" visibility="visible" style="isolation:auto;mix-blend-mode:normal;solid-color:#000;solid-opacity:1"/><path id="path5020" fill="#999" fill-opacity="1" fill-rule="evenodd" stroke="none" stroke-width=".409" d="M 955.38672 427 L 1072.3613 427 L 1380.7305 0 L 1263.7539 0 L 955.38672 427 z" clip-rule="nonzero" color="#000" color-interpolation="sRGB" color-interpolation-filters="linearRGB" color-rendering="auto" display="inline" enable-background="accumulate" image-rendering="auto" opacity="1" overflow="visible" shape-rendering="auto" text-rendering="auto" transform="matrix(0.26458333,0,0,0.26458333,0,184.02291)" visibility="visible" style="isolation:auto;mix-blend-mode:normal;solid-color:#000;solid-opacity:1"/><path id="path5016" fill="#999" fill-opacity="1" fill-rule="evenodd" stroke="none" stroke-width=".409" d="M 721.4668 427 L 838.44141 427 L 1146.8105 0 L 1029.8359 0 L 721.4668 427 z" clip-rule="nonzero" color="#000" color-interpolation="sRGB" color-interpolation-filters="linearRGB" color-rendering="auto" display="inline" enable-background="accumulate" image-rendering="auto" opacity="1" overflow="visible" shape-rendering="auto" text-rendering="auto" transform="matrix(0.26458333,0,0,0.26458333,0,184.02291)" visibility="visible" style="isolation:auto;mix-blend-mode:normal;solid-color:#000;solid-opacity:1"/><path id="path5012" fill="#999" fill-opacity="1" fill-rule="evenodd" stroke="none" stroke-width=".409" d="M 487.54688 427 L 604.52148 427 L 912.89062 0 L 795.91406 0 L 487.54688 427 z" clip-rule="nonzero" color="#000" color-interpolation="sRGB" color-interpolation-filters="linearRGB" color-rendering="auto" display="inline" enable-background="accumulate" image-rendering="auto" opacity="1" overflow="visible" shape-rendering="auto" text-rendering="auto" transform="matrix(0.26458333,0,0,0.26458333,0,184.02291)" visibility="visible" style="isolation:auto;mix-blend-mode:normal;solid-color:#000;solid-opacity:1"/><path id="path5008" fill="#999" fill-opacity="1" fill-rule="evenodd" stroke="none" stroke-width=".409" d="M 253.62695 427 L 370.60156 427 L 678.96875 0 L 561.99414 0 L 253.62695 427 z" clip-rule="nonzero" color="#000" color-interpolation="sRGB" color-interpolation-filters="linearRGB" color-rendering="auto" display="inline" enable-background="accumulate" image-rendering="auto" opacity="1" overflow="visible" shape-rendering="auto" text-rendering="auto" transform="matrix(0.26458333,0,0,0.26458333,0,184.02291)" visibility="visible" style="isolation:auto;mix-blend-mode:normal;solid-color:#000;solid-opacity:1"/><path id="path5004" fill="#999" fill-opacity="1" fill-rule="evenodd" stroke="none" stroke-width=".409" d="M 19.707031 427 L 136.67969 427 L 445.04883 0 L 328.07422 0 L 19.707031 427 z" clip-rule="nonzero" color="#000" color-interpolation="sRGB" color-interpolation-filters="linearRGB" color-rendering="auto" display="inline" enable-background="accumulate" image-rendering="auto" opacity="1" overflow="visible" shape-rendering="auto" text-rendering="auto" transform="matrix(0.26458333,0,0,0.26458333,0,184.02291)" visibility="visible" style="isolation:auto;mix-blend-mode:normal;solid-color:#000;solid-opacity:1"/><path id="path5000" fill="#999" fill-opacity="1" fill-rule="evenodd" stroke="none" stroke-width=".409" d="M 211.13086 0 L 94.15625 0 L 0 130.37695 L 0 292.35352 L 211.13086 0 z" clip-rule="nonzero" color="#000" color-interpolation="sRGB" color-interpolation-filters="linearRGB" color-rendering="auto" display="inline" enable-background="accumulate" image-rendering="auto" opacity="1" overflow="visible" shape-rendering="auto" text-rendering="auto" transform="matrix(0.26458333,0,0,0.26458333,0,184.02291)" visibility="visible" style="isolation:auto;mix-blend-mode:normal;solid-color:#000;solid-opacity:1"/></g></g></svg>